<svg version="1.1" id="Layer_1" xmlns="http://www.w3.org/2000/svg" xmlns:xlink="http://www.w3.org/1999/xlink" x="0" y="0" viewBox="0 0 150 150" xml:space="preserve"><style>.st2{fill:#100c08}.st3{fill:#fff}.st4{fill:#72b52b}.st5,.st9{opacity:.25}.st9{fill:#fff;enable-background:new}</style><defs><circle id="SVGID_1_" cx="75" cy="75" r="75"/></defs><clipPath id="SVGID_2_"><use xlink:href="#SVGID_1_" overflow="visible"/></clipPath><g clip-path="url(#SVGID_2_)"><path fill="#fcc31e" d="M.5 0h150v150H.5z"/><path class="st2" d="M76.5 22.5c19.9 0 36 16.1 36 36s-16.1 36-36 36-36-16.1-36-36c-.1-19.9 16.1-36 36-36z"/><path class="st3" d="M99.9 53.7l3.9-3.8-5.4-.8-2.4-4.9-2.4 4.9-5.5.8 4 3.8-1 5.4 4.9-2.6 4.8 2.6z"/><path class="st4" d="M52.8 50.8h10.7v3.7H52.8z"/><g id="XMLID_14_" class="st5"><path class="st3" d="M97.3 65c7 0 10.9-4.1 11.9-12.5 0 0 .9-4.3-1.7-7.4-1.9-2.4-5.4-3.6-10.1-3.6-13.9 0-15.5 4.1-15.5 4.3l-.1.2c-.4 1.4-1.7 6.7 2.4 11.4 4.9 5.7 8.1 7.6 13.1 7.6z"/></g><g opacity=".95"><linearGradient id="SVGID_3_" gradientUnits="userSpaceOnUse" x1="86.993" y1="752.41" x2="105.059" y2="734.344" gradientTransform="translate(0 -692)"><stop offset="0" stop-color="#72b52b"/><stop offset=".14" stop-color="#60ab30"/><stop offset=".726" stop-color="#1b8342"/><stop offset="1" stop-color="#007349"/></linearGradient><path d="M107.6 44.9c-.2-.3-.5-.6-.8-.8-2-1.9-5.2-2.8-9.3-2.8-13.9 0-15.5 4.1-15.5 4.3l-.2.4c-.4 1.4-1.7 6.7 2.4 11.4.6.7 1.2 1.4 1.8 2 4 4.2 7 5.6 11.4 5.6 7 0 10.9-4.1 11.9-12.5 0-.2.8-4.4-1.7-7.6z" fill="url(#SVGID_3_)"/><linearGradient id="SVGID_4_" gradientUnits="userSpaceOnUse" x1="46.855" y1="753.338" x2="66.918" y2="733.275" gradientTransform="translate(0 -692)"><stop offset="0" stop-color="#72b52b"/><stop offset=".14" stop-color="#60ab30"/><stop offset=".726" stop-color="#1b8342"/><stop offset="1" stop-color="#007349"/></linearGradient><path d="M71 45.6c0-.1-.4-1-2.1-2-2-1.1-5.9-2.3-13.4-2.3-4.8 0-8.2 1.2-10.1 3.6-2.6 3.2-1.7 7.4-1.7 7.4.4 3.4 1.3 6.1 2.7 8.1 2 2.9 5.1 4.4 9.2 4.4 5 0 8.2-1.8 13.1-7.6 4.1-4.7 2.8-10 2.4-11.4l-.1-.2z" fill="url(#SVGID_4_)"/></g><path class="st9" d="M107.6 44.9c2.6 3.2 1.7 7.4 1.7 7.4-1 8.4-4.9 12.5-11.9 12.5-4.4 0-7.4-1.4-11.4-5.6l8.3-8.3s-.2 5.8 0 5.5l12.5-12.5c.3.5.5.7.8 1zM71.1 46c.4 1.4 1.7 6.7-2.4 11.4-4.9 5.7-8.1 7.6-13.1 7.6-4.1 0-7.2-1.4-9.2-4.4l9.5-9.5s-.2 5.8 0 5.5l13-13c1.7 1 2.1 1.9 2.1 2l.1.4z"/><g class="st5"><path class="st3" d="M71.1 53h-.6l-1.1 1.9 1 .5s-1.5 2.4-.8 2.5 3.5-3.2 3.5-4.4-.5-1.3-.5-1.3-1-.5-1.5.8z"/></g><g class="st5"><path class="st3" d="M81.8 53h.6l1.1 1.9-1 .5s1.5 2.4.8 2.5-3.5-3.2-3.5-4.4.5-1.3.5-1.3 1-.5 1.5.8z"/></g><path d="M111.6 48.3v2l-1.5.1c0 1.2-.2 2.1-.2 2.1-1.4 10.9-7.3 13.1-12.6 13.1s-8.7-2-13.7-7.8c-2.9-3.4-3.2-7.1-3-9.6l-.3-.1s.2-1.2-.5-2.1c-.5-.6-1.4-.9-2.6-.9h-1.6c-1.2 0-2.1.3-2.6.9-.7.9-.5 2-.5 2.1l-.3.1c.2 2.5-.1 6.2-3 9.6-5 5.8-8.4 7.8-13.7 7.8s-11.3-2.2-12.6-13.1c0 0-.2-.8-.2-2.1l-1.5-.1v-2l1.8-.1c.4-1.7 1.2-3.6 3.1-5.1s4.8-2.5 9.3-2.5h42c4.5 0 7.4 1.1 9.3 2.5 1.9 1.5 2.8 3.4 3.1 5.1l1.8.1zm-2.3 4.1s.9-4.3-1.7-7.4c-1.9-2.4-5.4-3.6-10.1-3.6-13.9 0-15.5 4.1-15.5 4.3l-.2.3c-.4 1.4-1.7 6.7 2.4 11.4 4.9 5.7 8.1 7.6 13.1 7.6 7 0 10.9-4.1 12-12.6zM88.8 41.3H64.1c6.8 1.3 7.5 4 7.5 4s.2.5.4 1.3c.1-.3.3-.7.5-1 .6-.8 1.7-1.2 3.2-1.2h1.6c1.4 0 2.5.4 3.2 1.2.3.3.4.7.5 1 .2-.8.4-1.3.4-1.3-.1.1.6-2.7 7.4-4zM68.7 57.4c4.1-4.7 2.8-10 2.4-11.4l-.1-.4c-.1-.2-1.6-4.3-15.5-4.3-4.8 0-8.2 1.2-10.1 3.6-2.6 3.2-1.7 7.4-1.7 7.4 1 8.4 4.9 12.5 11.9 12.5 5 .2 8.2-1.7 13.1-7.4z" fill="gray"/><path class="st9" d="M107.6 44.9c-1.9-2.4-5.3-3.6-10.1-3.6-13.9 0-15.5 4.1-15.5 4.3l-.2.4c-.4 1.4-1.7 6.7 2.4 11.4 4.9 5.7 8.1 7.6 13.1 7.6 7 0 10.9-4.1 11.9-12.5.1-.2.9-4.4-1.6-7.6zm-10.1-4.3c4.5 0 7.4 1.1 9.3 2.5 1.9 1.5 2.8 3.4 3.1 5.1l1.8.1v2l-1.5.1c0 1.2-.2 2.1-.2 2.1-1.3 10.9-7.3 13.1-12.6 13.1s-8.7-2-13.7-7.8c-2.9-3.4-3.2-7.1-3-9.6l-.3-.1s.2-1.2-.5-2.1c-.5-.6-1.4-.9-2.6-.9h-.8v-.7h.8c1.4 0 2.5.4 3.2 1.2.3.3.4.7.5 1 .2-.8.4-1.3.4-1.3s.7-2.7 7.5-4H76.4v-.7h21.1z"/><path class="st3" d="M54.7 67.4h43.4C95.8 75.6 87 82.3 76.5 82.3s-19.4-6.7-21.8-14.9z"/><path class="st3" d="M54.7 67.4c2.3 8.2 11.2 14.9 21.7 14.9s19.4-6.7 21.7-14.9H54.7z"/><path class="st2" d="M95.7 97.9c-3.8 2.3-12.4 4.5-19.3 4.5s-15.5-2.2-19.2-4.5h-.1c-9.1 6.8-19.7 24.4-19.7 38.1v14h78.1v-14c0-13.7-10.7-31.3-19.8-38.1z"/><path class="st4" d="M20.6 142.5c14.1-34.6 35.1-44 36.5-44.6-9 6.8-19.7 24.4-19.7 38v6.5H20.6v.1z"/><path class="st4" d="M20.6 142.5c14.1-34.6 35.1-44 36.5-44.6-9 6.8-19.7 24.4-19.7 38v6.5H20.6v.1z"/><path class="st3" d="M88.9 120l-6.2 6 1.4 8.6-7.7-4-7.6 4 1.4-8.6-6.2-6 8.6-1.2 3.8-7.8 3.9 7.8z"/></g></svg>